<!-- This Source Code Form is subject to the terms of the Mozilla Public
   - License, v. 2.0. If a copy of the MPL was not distributed with this
   - file, You can obtain one at https://mozilla.org/MPL/2.0/. -->
<svg xmlns="http://www.w3.org/2000/svg" width="50" height="40" fill="none"><g clip-path="url(#a)"><path fill="url(#b)" d="M44.334 5.63c-.848.998-.927 1.831-.927 1.831s-.082-.787-1.008-1.831c-1.47-1.649-5.76-1.182-5.102 2.753.631 3.792 6.103 7.91 6.11 7.914 0 0 5.47-4.208 6.112-7.996.653-3.853-3.795-4.312-5.185-2.671Z"/><path fill="url(#c)" d="M29.51.16c2.876.864-1.469 17.615-1.469 17.615l-14.814-3.82s2.326-3.064 5.924-6.812C22.508 3.646 27.055-.58 29.51.16Z"/><path fill="url(#d)" d="M34.055 55.455c-6.273-11.66-3.153-19.734-3.153-19.734.715-.075 11.192-5.641 11.83-6.121 1.412-1.067 5.236-5.7 2.073-6.91-2.021-.771-4.441-.057-6.563-1.245-3.792-2.126-3.95-6.061-8.381-8.277-3.587-1.795-7.465-2.043-7.465-2.043s.6-9.615-.919-10.864c-1.648-1.358-4.959.452-9.357 5.033-3.4 3.544-5.016 6.072-7.412 10.747C1.868 21.581.601 27.373.235 33.545c-.513 8.664-1.113 18.883 1.124 27.44 3.895.319 32.918-4.406 32.692-5.523l.003-.007Z"/><path fill="url(#e)" d="M34.384 55.587c-.732-.456-6.172-10.187-3.479-19.882.502.076 11.185-5.626 11.823-6.11.848-.64 2.565-2.568 3.118-4.266l-3.024-1.376c.122.299-6.165 5.272-14.743 2.876-3.608-1.009-7.717-2.37-11.508-2.132-8.438.524-11.062 3.827-10.2 5.044.56.79 2.56-.959 2.168-.269-.273.481-3.562 2.237-2.75 3.515.811 1.279 3.277-.732 3.235-.162-.04.546-2.833 1.94-2.044 2.916.931 1.153 4.643-2.039 6.819-.947 5.2 2.606-5.087 14.85-.962 24.416.37.854 22.71-2.91 21.555-3.627l-.008.004Z" opacity=".6"/><path fill="url(#f)" d="M32.294 27.476c-.391.018 1.724 3.328 6.187 4.581 1.95-.955 3.917-2.209 4.251-2.46 1.411-1.065 5.235-5.698 2.072-6.908-1.192-.456-2.525-.395-3.85-.513-4.254 1.67-3.073 5.066-8.663 5.3h.003Z"/><path fill="url(#g)" d="M32.27 52.086s-3.698-8.617-1.303-16.348c-3.393.345-6.078 3.06-7.87 5.76-1.56 2.348-4.158 7.16-3.337 10.14.866 3.145 12.51.452 12.51.452v-.004Z" opacity=".97"/><path fill="url(#h)" d="M29.524 21.908c.247.223.47-.254.255-.549-.506-.697-1.264-1.4-2.348-1.562-1.311-.198-2.172.384-2.733 1.052-.212.254.043.782.287.596.69-.535 1.638-.948 2.765-.6.69.215 1.297.636 1.774 1.063Z"/><path fill="#200041" d="M44.805 22.688a5.445 5.445 0 0 0-.954-.262c-.21.21-.356.476-.424.765-.155.736.491 2.162 1.914 2 .205-.024.405-.081.592-.17.24-1.004.018-1.895-1.13-2.333h.002Z"/></g><defs><linearGradient id="b" x1="36.079" x2="49.307" y1="2.531" y2="13.626" gradientUnits="userSpaceOnUse"><stop stop-color="#E752FF"/><stop offset=".11" stop-color="#DD4FFF"/><stop offset=".28" stop-color="#C347FF"/><stop offset=".51" stop-color="#983BFF"/><stop offset=".77" stop-color="#5E2AFF"/><stop offset="1" stop-color="#271AFF"/></linearGradient><linearGradient id="c" x1="26.026" x2="17.829" y1=".961" y2="23.614" gradientUnits="userSpaceOnUse"><stop offset=".01" stop-color="#FE5B15"/><stop offset=".39" stop-color="#E83C38"/><stop offset="1" stop-color="#FB2872"/></linearGradient><linearGradient id="d" x1="10.977" x2="32.239" y1="-4.931" y2="74.428" gradientUnits="userSpaceOnUse"><stop stop-color="#FC3953"/><stop offset=".12" stop-color="#FE561F"/><stop offset=".15" stop-color="#FE7112"/><stop offset=".19" stop-color="#FE8808"/><stop offset=".22" stop-color="#FE9702"/><stop offset=".25" stop-color="#FF9C00"/><stop offset=".36" stop-color="#F90"/><stop offset=".42" stop-color="#FF9100"/><stop offset=".48" stop-color="#FF8200"/><stop offset=".52" stop-color="#FF6E00"/><stop offset=".54" stop-color="#F60"/><stop offset="1" stop-color="#FB2872"/></linearGradient><linearGradient id="e" x1="24.845" x2="41.651" y1="24.447" y2="108.48" gradientUnits="userSpaceOnUse"><stop offset=".12" stop-color="#FFEB49"/><stop offset=".36" stop-color="#FFB52B" stop-opacity=".6"/><stop offset=".58" stop-color="#FF8A14" stop-opacity=".28"/><stop offset=".73" stop-color="#FF7005" stop-opacity=".08"/><stop offset=".8" stop-color="#F60" stop-opacity="0"/></linearGradient><linearGradient id="f" x1="35.741" x2="45.045" y1="23.144" y2="30.686" gradientUnits="userSpaceOnUse"><stop offset=".23" stop-color="#FFC638"/><stop offset="1" stop-color="#FFE85D"/></linearGradient><linearGradient id="g" x1="28.785" x2="37.633" y1="44.787" y2="29.027" gradientUnits="userSpaceOnUse"><stop offset=".11" stop-color="#FB2872" stop-opacity="0"/><stop offset=".21" stop-color="#F62670" stop-opacity=".05"/><stop offset=".38" stop-color="#EB206A" stop-opacity=".18"/><stop offset=".58" stop-color="#D81762" stop-opacity=".41"/><stop offset=".81" stop-color="#BE0B57" stop-opacity=".71"/><stop offset="1" stop-color="#A5004C"/></linearGradient><linearGradient id="h" x1="31.371" x2="26.467" y1="25.032" y2="18.22" gradientUnits="userSpaceOnUse"><stop offset=".16" stop-color="#A030B9"/><stop offset=".88" stop-color="#00073A"/></linearGradient><clipPath id="a"><path fill="#fff" d="M0 0h50v40H0z"/></clipPath></defs></svg>
