<svg width="60" height="60" viewBox="0 0 15.858 15.858" xmlns="http://www.w3.org/2000/svg" role="img"><path d="M0 7.92A7.92 7.92 0 1 0 7.92 0 7.916 7.916 0 0 0 0 7.92Z" fill-rule="evenodd" fill="#192e45"></path><path d="m1.06 6.973.602-.84-.038 1.21.17-.91c.501 1.016 1.7 2.46 2.822 3.212.12.081.212.157.319.219.144.056.288.087.433.112.075.013.156.02.232.025.075.007.156.007.232.007s.15-.007.225-.013a2.788 2.788 0 0 0 .446-.081c.075-.02.144-.038.219-.063.069-.019.144-.05.213-.075.07-.032.138-.057.207-.094.07-.038.138-.07.2-.107.07-.031.132-.075.201-.113.07-.037.132-.081.201-.119s.132-.081.194-.12c.063-.043.132-.08.195-.124s.132-.082.2-.126l.063-.038.032.02.451.3-.458-.119c-.044.05-.087.1-.138.15-.056.057-.119.114-.175.17-.063.05-.126.107-.195.15-.069.05-.131.094-.207.138a3.498 3.498 0 0 1-.677.314c-.081.025-.157.05-.238.069-.082.019-.163.038-.245.05-.081.013-.163.019-.244.031a2.62 2.62 0 0 1-.74-.062 2.505 2.505 0 0 1-.232-.07 2.165 2.165 0 0 1-.383-.187s-.432.062-.257.388c.176.326.44.295.314.678a3.03 3.03 0 0 1-.351.595c-.289.39-.74.734-.696.94 2.05 2.528 6.672 2.177 8.427-.08-.025-.327-.539-.483-.896-1.28.1.032.25.075.25.07 0-.007-.426-.697-.445-.766l.276.019s-.364-.452-.376-.495l.37-.05s-.464-.534-.47-.577l.47.075-.514-.621h.244l-.288-.42c-.05-.019-.1-.031-.15-.044l-.189-.056c-.702-.22-1.367-.42-2.006-.822-.897-.558-1.7-1.241-2.302-1.774l-1.21-.59c-1.16-.088-2.251-.056-2.916.075l.427-.727-.652.784c-.044-.013-.057-.038-.057-.038l.044-.965-.207.871a.481.481 0 0 0-.213-.044.513.513 0 0 0-.515.518.52.52 0 0 0 .446.517l-.445.903Z" fill="#d0933a" fill-rule="evenodd"></path><path d="M1.786 5.077a.52.52 0 0 0-.727.477c0 .25.175.467.42.514l.026.002c.157-.05.457-.473.406-.736a.58.58 0 0 0-.125-.257Z" fill="#ffcc86" fill-rule="evenodd"></path><path d="M6.358 4.396c-.094-.257-.069-.59.063-.903.188-.433.546-.721.884-.721.07 0 .132.012.195.037.194-.175.42-.32.67-.42 1.386-.552 3.412.433 3.932 1.793.25.659.176 1.38-.038 2.038-.175.54-.815 1.317-.576 1.907-.094-.025-2.076-.64-2.628-.991-.884-.552-1.68-1.23-2.276-1.756l-.019-.019-2.013-.953c-.025-.012-.05-.025-.069-.037.289 0 1.386.131 1.875.025Z" fill="#fdd321" fill-rule="evenodd"></path><path d="M6.954 4.621a.327.327 0 0 1-.144-.031.43.43 0 0 1-.226-.25c-.088-.214-.063-.509.056-.785.157-.357.452-.608.722-.608.05 0 .1.013.15.031.132.057.226.189.257.377.038.2.006.432-.094.652-.157.357-.458.614-.721.614Z" fill="#fff"></path><path d="M7.355 3.047c.038 0 .076.007.113.026.1.043.176.156.2.307.032.182.007.395-.087.596-.138.32-.408.551-.633.551a.293.293 0 0 1-.107-.018c-.094-.038-.144-.126-.17-.195-.074-.188-.056-.464.051-.715.144-.32.408-.552.633-.552Zm0-.188c-.3 0-.633.276-.809.671-.131.295-.15.615-.056.86.056.144.15.244.27.3.056.025.119.038.188.038.3 0 .633-.276.802-.671.107-.238.138-.49.1-.709-.037-.219-.15-.376-.313-.445a.34.34 0 0 0-.182-.044Z" fill="#1d2a3a"></path></svg>